<?xml version="1.0" encoding="utf-8"?>
<!-- Generator: Adobe Illustrator 18.1.1, SVG Export Plug-In . SVG Version: 6.00 Build 0)  -->
<svg version="1.1" xmlns="http://www.w3.org/2000/svg" xmlns:xlink="http://www.w3.org/1999/xlink" x="0px" y="0px"
	 viewBox="0 0 1258.4 775.6" style="enable-background:new 0 0 1258.4 775.6;" xml:space="preserve">
<g id="Layer_1">
	<path class="turbine-tower" d="M323.9,535.9c-1-57.7-4.7-116.3-10.8-174c-2.1-19.5-3.7-39-4-58.6c0-2.9,0.1-5.8,0.4-8.6
		c6.1-0.3,11.1-2.5,13.2-11c2.2-9.3-0.5-21-4-29.6c-0.5-1.3-1.2-2.7-2.3-3.6c-1.1-0.8-2.5-1.1-3.8-1.3c-9.7-1.5-19.7-0.4-28.8,3.1
		c-1,0.4-2,0.8-2.6,1.7c-0.5,0.8-0.5,1.7-0.5,2.7c-0.1,8.5,0,17,0.3,25.5c0.2,3.6,0.6,7.7,3.5,9.8c2.1,1.5,4.9,1.6,7.5,1.6
		c1.4,0,2.7,0.1,4.1,0.2c3.5,43.6,0.7,89.2-1.7,132.8c-2.6,46.8-5.8,93.6-5.8,140.5c0,30.7-3.7,61.5-5,91.7
		c-0.5,10.3-0.3,19.2-2.2,29.1c-2.1,10.4,0.7,25.8-4.7,35.3c10,5.6,32.9,1.7,44.9,1.7c1.4,0,13.1-2.3,13-3
		C328.5,660.1,325,598,323.9,535.9z"/>
</g>
<g id="Layer_2">
	<path class="turbine-blade main" d="M240.1,104.3c3.2,12.2,3.6,26.4,7,39.1c3.6,13.4,8.8,25.2,12,38.9c5.9,25.2,15.4,48.6,25.9,72.1
		c1.5,3.2,0.9,6.5,3.6,8.7c-0.3,1.1-0.5,2.3-0.5,3.5c-4,0.2-7.7,5.3-10.5,7.2c-13,9.1-25.9,18.5-37.3,29.6
		c-10.5,10.2-19.5,21.3-29.9,31.5c-10.7,10.4-22.8,18.6-31.6,30.4c-9,12-18.9,23-27.5,35.3c-3.5,5-7.8,9.5-11.3,14.6
		c-0.4,0.6-7.6,15.3-5,14.6c11.2-3.1,23.1-14.9,31.6-22.7c21.1-19.2,46-32.7,66.6-51.9c13.1-12.1,26.1-24.3,39.2-36.4
		c5.1-4.7,10.2-9.5,15.2-14.3c3.3-3.2,6.6-6.6,9-10.6c1-1.8,3-6.2,4.6-7.3c1.1-0.7,2.4-0.3,3.7-0.6c1.3-0.3,2.4-1.6,3.6-1.9
		c1.6-0.4,2.2,0.4,3.8,1.2c2.1,1,4,2.7,6.1,3.6c2.7,1,5.7,1.1,8.4,2.4c7.7,3.5,15.2,7.4,22.9,11c52.7,24.5,111,34.6,168.8,41.3
		c-0.5-1.5-1-2.9-1.6-4.4c-21.2-9.4-43.1-17.2-63.5-28.2c-21.1-11.5-41.8-24.4-65.6-29.8c-24-5.4-50.4-22.2-75.6-18.9
		c-0.2-0.4-1.6-1.7-1.9-2.1c-0.8-1.1,0.3-0.3-1-0.8c0.4-0.8,0.6-1.6,0.8-2.4c-5.6-20.2-11.2-40.4-16.9-60.7
		c-7.2-26-18.4-51.1-24.5-77.1c-3.2-13.6-10.3-24.9-15.3-38c-2.4-6.2-4.5-12.5-7.9-18.2c-1.5-2.4-11.5-12-11.4-13.6
		c-0.5,14.9,3.2,30.2,4.3,44.8C238.7,97.9,239.3,101.2,240.1,104.3z"/>
</g>
<g id="Layer_3">
	<path class="turbine-tower" d="M790.5,528.9c-0.8-43.2-3.5-87-8.1-130.1c-1.5-14.6-2.8-29.2-3-43.8c0-2.2,0.1-4.3,0.3-6.4
		c4.6-0.2,8.3-1.9,9.8-8.2c1.7-6.9-0.4-15.7-3-22.2c-0.4-1-0.9-2-1.7-2.7c-0.8-0.6-1.9-0.8-2.9-1c-7.2-1.1-14.7-0.3-21.5,2.3
		c-0.7,0.3-1.5,0.6-1.9,1.3c-0.4,0.6-0.4,1.3-0.4,2c-0.1,6.4,0,12.7,0.2,19.1c0.1,2.7,0.5,5.8,2.6,7.4c1.6,1.1,3.6,1.2,5.6,1.2
		c1,0,2,0.1,3.1,0.1c2.6,32.6,0.5,66.7-1.3,99.4c-1.9,35-4.4,70-4.4,105.1c0,23-2.7,46-3.7,68.6c-0.3,7.7-0.2,14.4-1.7,21.8
		c-1.5,7.8,0.6,19.3-3.5,26.4c7.5,4.2,24.6,1.3,33.6,1.3c1,0,9.8-1.7,9.8-2.3C794,621.8,791.4,575.3,790.5,528.9z"/>
</g>
<g id="Layer_4">
	<path class="turbine-blade secondary" d="M727.9,206c2.4,9.2,2.7,19.8,5.3,29.3c2.7,10,6.5,18.9,9,29.1c4.4,18.8,11.5,36.3,19.4,54
		c1.1,2.4,0.7,4.8,2.7,6.5c-0.3,0.8-0.4,1.7-0.4,2.6c-3,0.2-5.8,4-7.8,5.4c-9.7,6.8-19.4,13.8-27.9,22.1
		c-7.9,7.6-14.5,15.9-22.4,23.5c-8,7.8-17,13.9-23.7,22.8c-6.7,9-14.1,17.2-20.5,26.4c-2.6,3.8-5.9,7.1-8.5,11
		c-0.3,0.4-5.7,11.5-3.8,10.9c8.4-2.4,17.2-11.1,23.7-16.9c15.8-14.3,34.4-24.5,49.8-38.8c9.8-9.1,19.6-18.2,29.3-27.2
		c3.8-3.5,7.6-7.1,11.4-10.7c2.5-2.4,5-4.9,6.7-7.9c0.8-1.3,2.2-4.6,3.5-5.5c0.8-0.6,1.8-0.2,2.8-0.5c1-0.2,1.8-1.2,2.7-1.4
		c1.2-0.3,1.7,0.3,2.9,0.9c1.6,0.7,3,2,4.6,2.7c2,0.8,4.3,0.8,6.3,1.8c5.8,2.6,11.4,5.5,17.1,8.2c39.5,18.4,83,25.9,126.2,30.9
		c-0.4-1.1-0.8-2.2-1.2-3.3c-15.9-7-32.3-12.8-47.5-21.1c-15.8-8.6-31.3-18.3-49.1-22.3c-17.9-4-37.7-16.6-56.6-14.1
		c-0.2-0.3-1.2-1.3-1.4-1.5c-0.6-0.9,0.2-0.2-0.7-0.6c0.3-0.6,0.5-1.2,0.6-1.8c-4.2-15.1-8.4-30.3-12.6-45.4
		c-5.4-19.4-13.7-38.2-18.3-57.7c-2.4-10.2-7.7-18.6-11.5-28.4c-1.8-4.6-3.4-9.4-5.9-13.6c-1.1-1.8-8.6-8.9-8.6-10.2
		c-0.4,11.1,2.4,22.6,3.2,33.5C726.9,201.2,727.3,203.6,727.9,206z"/>
</g>
</svg>
